
        <svg xmlns="http://www.w3.org/2000/svg" width="2880" height="1800" viewBox="-1440 -900 2880 1800">
          <defs>
            <pattern id="bg" width="36" height="36" patternUnits="userSpaceOnUse" patternTransform="rotate(22.5)">
              <path d="
  M 6 0
  l 4 4
  l 16 0
  l 4 -4
  l 6 6
  l -4 4
  l 0 16
  l 4 4
  l -6 6
  l -4 -4
  l -16 0
  l -4 4
  l -6 -6
  l 4 -4
  l 0 -16
  l -4 -4
  z
  " stroke="#23292D" stroke-width="1" fill="none"/>
            </pattern>
            <pattern id="bg-large" width="360" height="360" patternUnits="userSpaceOnUse" patternTransform="rotate(-22.5)">
              <path d="
  M 60 0
  l 40 40
  l 160 0
  l 40 -40
  l 60 60
  l -40 40
  l 0 160
  l 40 40
  l -60 60
  l -40 -40
  l -160 0
  l -40 40
  l -60 -60
  l 40 -40
  l 0 -160
  l -40 -40
  z
  " stroke="#42474B" stroke-width="2" fill="none"/>
            </pattern>
            <radialGradient id="accent-bg">
              <stop offset="25%" stop-color="#0F0F0F"/>
              <stop offset="100%" stop-color="#0F0F0F" stop-opacity="0"/>
            </radialGradient>
            <linearGradient id="fill-0" x1="0" y1="0" x2="1" y2="1"><stop offset="25%" stop-color="#EF4E7C" stop-opacity="0"/><stop offset="90%" stop-color="#EF4E7C"/></linearGradient>
<linearGradient id="fill-1" x1="0" y1="0" x2="1" y2="1"><stop offset="25%" stop-color="#F37055" stop-opacity="0"/><stop offset="90%" stop-color="#F37055"/></linearGradient>
<linearGradient id="fill-2" x1="0" y1="0" x2="1" y2="1"><stop offset="25%" stop-color="#F79532" stop-opacity="0"/><stop offset="90%" stop-color="#F79532"/></linearGradient>
<linearGradient id="fill-3" x1="0" y1="0" x2="1" y2="1"><stop offset="25%" stop-color="#6EBB82" stop-opacity="0"/><stop offset="90%" stop-color="#6EBB82"/></linearGradient>
<linearGradient id="fill-4" x1="0" y1="0" x2="1" y2="1"><stop offset="25%" stop-color="#09B399" stop-opacity="0"/><stop offset="90%" stop-color="#09B399"/></linearGradient>
<linearGradient id="fill-5" x1="0" y1="0" x2="1" y2="1"><stop offset="25%" stop-color="#1299AD" stop-opacity="0"/><stop offset="90%" stop-color="#1299AD"/></linearGradient>
<linearGradient id="fill-6" x1="0" y1="0" x2="1" y2="1"><stop offset="25%" stop-color="#5073B8" stop-opacity="0"/><stop offset="90%" stop-color="#5073B8"/></linearGradient>
<linearGradient id="fill-7" x1="0" y1="0" x2="1" y2="1"><stop offset="25%" stop-color="#A067AB" stop-opacity="0"/><stop offset="90%" stop-color="#A067AB"/></linearGradient>
          </defs>
          <rect x="-1440" y="-900" width="2880" height="1800" fill="#0F0F0F" />
          <rect x="-1440" y="-900" width="2880" height="1800" fill="url(#bg)"/>
          <rect x="-1440" y="-900" width="2880" height="1800" fill="url(#bg-large)"/>
          <circle r="1200" fill="url(#accent-bg)"/>
          <path d="M 0 -300 L 212.13 -212.13 L 212.13 212.13 Z" stroke="#EF4E7C" stroke-width="0" fill="url(#fill-0)" transform="rotate(0)"/>
<path d="M 0 -300 L 212.13 -212.13 L 212.13 212.13 Z" stroke="#F37055" stroke-width="0" fill="url(#fill-1)" transform="rotate(-45)"/>
<path d="M 0 -300 L 212.13 -212.13 L 212.13 212.13 Z" stroke="#F79532" stroke-width="0" fill="url(#fill-2)" transform="rotate(-90)"/>
<path d="M 0 -300 L 212.13 -212.13 L 212.13 212.13 Z" stroke="#6EBB82" stroke-width="0" fill="url(#fill-3)" transform="rotate(-135)"/>
<path d="M 0 -300 L 212.13 -212.13 L 212.13 212.13 Z" stroke="#09B399" stroke-width="0" fill="url(#fill-4)" transform="rotate(-180)"/>
<path d="M 0 -300 L 212.13 -212.13 L 212.13 212.13 Z" stroke="#1299AD" stroke-width="0" fill="url(#fill-5)" transform="rotate(-225)"/>
<path d="M 0 -300 L 212.13 -212.13 L 212.13 212.13 Z" stroke="#5073B8" stroke-width="0" fill="url(#fill-6)" transform="rotate(-270)"/>
<path d="M 0 -300 L 212.13 -212.13 L 212.13 212.13 Z" stroke="#A067AB" stroke-width="0" fill="url(#fill-7)" transform="rotate(-315)"/>
        </svg>